<svg width="24" height="25" viewBox="0 0 24 25" fill="none" xmlns="http://www.w3.org/2000/svg">
    <path d="M3 2.75C2.58579 2.75 2.25 3.08579 2.25 3.5C2.25 3.91421 2.58579 4.25 3 4.25V2.75ZM5 3.5L5.74779 3.44248C5.71773 3.05173 5.3919 2.75 5 2.75V3.5ZM21 6.5L21.7454 6.58282C21.769 6.3708 21.7011 6.15877 21.5588 5.99981C21.4166 5.84085 21.2133 5.75 21 5.75V6.5ZM5.23077 6.5L4.48298 6.55752L5.23077 6.5ZM18.3387 15.6187L18.3921 16.3668L18.3387 15.6187ZM7.98405 16.3583L7.93061 15.6102L7.98405 16.3583ZM3 4.25H5V2.75H3V4.25ZM8.03748 17.1064L18.3921 16.3668L18.2852 14.8706L7.93061 15.6102L8.03748 17.1064ZM20.9293 13.9274L21.7454 6.58282L20.2546 6.41718L19.4385 13.7618L20.9293 13.9274ZM4.25221 3.55752L4.48298 6.55752L5.97856 6.44248L5.74779 3.44248L4.25221 3.55752ZM4.48298 6.55752L5.09965 14.5743L6.59523 14.4592L5.97856 6.44248L4.48298 6.55752ZM21 5.75H5.23077V7.25H21V5.75ZM18.3921 16.3668C19.7156 16.2722 20.7828 15.2462 20.9293 13.9274L19.4385 13.7618C19.3719 14.3612 18.8868 14.8276 18.2852 14.8706L18.3921 16.3668ZM7.93061 15.6102C7.24467 15.6592 6.64798 15.1449 6.59523 14.4592L5.09965 14.5743C5.21569 16.0827 6.52841 17.2142 8.03748 17.1064L7.93061 15.6102Z" fill="#262626"/>
    <rect x="8.5" y="21" width="0.01" height="0.01" stroke="#262626" stroke-width="2.25" stroke-linejoin="round"/>
    <rect x="17.5" y="21" width="0.01" height="0.01" stroke="#262626" stroke-width="2.25" stroke-linejoin="round"/>
</svg>
