<svg width="24" height="24" viewBox="0 0 24 24" fill="none" xmlns="http://www.w3.org/2000/svg">
<path d="M7.12986 0.53125C3.41406 0.53125 0.390625 3.55647 0.390625 7.27319V16.9022C0.390625 20.6185 3.41584 23.6424 7.13257 23.6424H16.7616C20.4779 23.6424 23.5017 20.6171 23.5017 16.9004V7.27049C23.5017 3.55468 20.4765 0.53125 16.7598 0.53125H7.12986ZM18.8795 4.22903C19.3898 4.22903 19.804 4.64318 19.804 5.15347C19.804 5.66377 19.3898 6.07792 18.8795 6.07792C18.3692 6.07792 17.9551 5.66377 17.9551 5.15347C17.9551 4.64318 18.3692 4.22903 18.8795 4.22903ZM11.9462 6.07792C15.2603 6.07792 17.9551 8.77267 17.9551 12.0868C17.9551 15.4009 15.2599 18.0957 11.9462 18.0957C8.63205 18.0957 5.93729 15.4005 5.93729 12.0868C5.93729 8.77314 8.63205 6.07792 11.9462 6.07792ZM11.9462 7.92681C9.64847 7.92681 7.78618 9.7891 7.78618 12.0868C7.78618 14.3845 9.64847 16.2468 11.9462 16.2468C14.2439 16.2468 16.1062 14.3845 16.1062 12.0868C16.1062 9.7891 14.2439 7.92681 11.9462 7.92681Z" fill="#0A4C26"/>
</svg>
