<svg width="69" height="69" viewBox="0 0 69 69" fill="none" xmlns="http://www.w3.org/2000/svg">
<g filter="url(#filter0_d_461_47420)">
<g clip-path="url(#clip0_461_47420)">
<path d="M34.5 65C52.4493 65 67 50.4493 67 32.5C67 14.5507 52.4493 0 34.5 0C16.5507 0 2 14.5507 2 32.5C2 50.4493 16.5507 65 34.5 65Z" fill="white"/>
<path d="M26.2106 15.6367L26.5531 16.6846H27.6533L26.7623 17.3299L27.1016 18.3778L26.2106 17.731L25.3212 18.3778L25.6621 17.3299L24.7695 16.6846H25.8714L26.2106 15.6367Z" fill="#006636"/>
<path d="M42.7848 15.6367L43.1241 16.6846H44.2244L43.335 17.3299L43.6758 18.3778L42.7848 17.731L41.8939 18.3778L42.2347 17.3299L41.3438 16.6846H42.444L42.7848 15.6367Z" fill="#006636"/>
<path d="M38.3584 18.9861C38.2982 18.9861 37.6989 19.0035 37.282 19.6028C37.282 19.6028 37.4326 18.7927 37.8876 18.3266C37.821 18.3805 37.2645 18.8513 37.0584 19.5346C37.0584 19.5346 37.0283 19.2984 37.1551 19.1113C37.1551 19.1113 37.0695 19.1525 37.0045 19.2857C37.0045 19.2857 37.0457 18.7419 37.2233 18.5184C37.2233 18.5184 37.3692 18.2584 37.3565 18.0111C37.3565 18.0111 37.3153 17.8113 37.4167 17.7336C37.4167 17.7336 37.477 17.6607 37.477 17.5275C37.477 17.5275 37.6831 17.4419 37.7607 17.0202C37.7607 17.0202 37.8384 16.8696 37.7195 16.6936C37.7195 16.6936 37.6292 16.1324 37.7195 15.92C37.7195 15.92 37.7021 16.1974 37.8226 16.3385L37.9129 16.4162C37.9129 16.4162 38.1412 16.1689 38.0461 15.782L38.0334 15.4983C38.0334 15.4983 37.9922 15.2081 37.8337 15.1289C37.8337 15.1289 37.7005 15.002 37.6514 14.8641C37.6514 14.8641 37.4405 14.5867 37.2407 14.555C37.2407 14.555 37.0125 14.4218 36.9633 14.3013C36.9633 14.3013 36.7445 13.9636 36.215 14.1142C36.215 14.1142 36.0565 14.2363 35.8884 14.1555H35.4651C35.4651 14.1555 35.2242 14.0461 34.9277 14.0461C34.9277 14.0461 34.5218 14.0223 34.4315 14.1602C34.4315 14.1602 34.3903 14.2205 34.3094 14.1364C34.2365 14.0588 33.9955 13.9779 33.6864 14.0096C33.6864 14.0096 33.5357 13.9795 33.4454 13.8511C33.4454 13.8511 33.3233 13.7369 33.1553 13.8463C33.1553 13.8463 32.9317 13.9192 32.8461 13.7924C32.8461 13.7924 32.5195 13.6894 32.464 13.4658C32.464 13.4658 32.0709 12.5099 31.0689 12.5653C31.0689 12.5653 30.6504 12.4797 30.1748 13.2486C30.1748 13.2486 29.7642 13.7258 29.9814 13.9922C29.9814 13.9922 30.1193 14.2109 30.3682 14.0651C30.3682 14.0651 30.6884 13.8416 30.912 14.0159C30.912 14.0159 31.275 14.2886 31.1767 14.5899C31.1767 14.5899 30.9532 15.0972 31.1815 15.3144C31.1815 15.3144 31.2592 15.392 31.1577 15.4602C31.1577 15.4602 31.0721 15.744 31.4225 16.0833C31.4225 16.0833 31.5556 16.1974 31.4526 16.3369C31.3495 16.4749 31.4938 16.5906 31.5255 16.6144C31.562 16.6318 31.5255 16.7174 31.5128 16.7967C31.4954 16.8744 31.5905 16.9473 31.6397 16.9901C31.6397 16.9901 31.6397 17.3531 31.887 17.6908C31.887 17.6908 32.1771 18.0903 32.1597 18.9242L31.7855 18H31.749C31.749 18 32.1121 18.9242 32.082 19.468C32.082 19.468 31.9789 19.2492 31.8949 19.1716C31.9123 19.2207 32.017 19.4807 31.9805 19.6725C31.9805 19.6725 31.7934 19.0019 31.2972 18.6151C31.3464 18.6817 31.749 19.2318 31.7395 19.552C31.7395 19.552 31.4795 19.17 31.0753 19.0511C31.0753 19.0511 31.5588 19.4379 31.5715 19.6313C31.5715 19.6313 31.3606 19.3586 30.9738 19.3666C30.9738 19.3666 31.3242 19.4934 31.4209 19.7597H37.6101C37.6101 19.7597 37.6831 19.5188 38.0509 19.3666C37.9843 19.3713 37.7132 19.4268 37.5673 19.6202C37.5657 19.6202 37.7164 19.1414 38.3584 18.9861ZM30.5109 13.1884C30.5236 13.098 30.7106 12.995 30.7106 12.995C30.625 13.2788 30.5109 13.1884 30.5109 13.1884ZM31.7443 14.0524C31.7443 14.0524 31.256 13.8336 31.2925 13.4833C31.3226 13.1329 31.1054 12.8903 31.1054 12.8903C31.3654 12.968 31.432 13.4959 31.432 13.4959C31.4447 13.7147 31.6064 13.6703 31.6064 13.6703L31.5889 13.1139C31.7268 13.247 31.7633 13.4341 31.7712 13.4516C31.841 13.5942 31.7443 14.0524 31.7443 14.0524ZM32.8382 19.3967C32.8382 19.3967 32.7605 18.8101 32.6923 18.7435C32.6923 18.7435 32.7589 19.3491 32.6622 19.468C32.6622 19.468 32.5718 19.2936 32.5718 18.9972V17.908C32.5718 17.908 32.6321 17.7859 32.6448 17.6068C32.6448 17.6068 32.7827 17.8605 32.8382 18.1506C32.8382 18.1506 32.8857 19.208 32.8382 19.3967ZM36.1342 18.8149C36.0676 18.8878 35.8504 19.4205 35.8504 19.4205C35.7648 18.9861 36.001 18.0127 36.001 18.0127C35.7775 18.3995 35.6554 19.124 35.6554 19.124C35.6681 18.7499 35.5222 18.428 35.4858 18.3567C35.6189 19.0273 35.4445 19.6139 35.4445 19.6139C35.4207 19.2762 35.2384 18.9258 35.2384 18.9258C35.324 19.4696 35.202 19.4458 35.202 19.4458C35.2147 18.799 34.9293 18.1411 34.9293 18.1411C35.0751 18.6912 34.9594 19.4458 34.9594 19.4458L34.9356 18.9131C34.8944 19.2397 34.8326 19.3364 34.8326 19.3364C34.8865 18.9734 34.7359 18.6294 34.7359 18.6294C34.766 19.487 34.5662 19.5727 34.5662 19.5727C34.5488 19.319 34.6439 19.1494 34.6629 19.1129C34.5488 19.1795 34.4632 19.3777 34.4632 19.3777C34.487 19.0447 34.6994 18.344 34.7279 18.2425C34.4077 18.642 34.2444 19.4696 34.2444 19.4696C34.2032 18.8466 34.6138 18.2172 34.6629 18.1458C34.1303 18.6056 34.0462 19.3491 34.0462 19.3491C34.005 18.9433 33.7736 18.4914 33.7197 18.3884C33.9733 19.0764 33.8576 19.4696 33.8576 19.4696C33.8449 19.2825 33.7672 19.1731 33.7672 19.1731C33.7847 19.4014 33.7434 19.5473 33.7434 19.5473C33.7197 19.2144 33.4058 18.363 33.3693 18.2584C33.4834 18.6214 33.4914 19.3935 33.4914 19.5267C33.4787 19.3396 33.244 18.9892 33.244 18.9892C33.2742 18.7657 33.3217 18.2774 33.3217 18.2774C33.309 18.0047 33.4073 17.8842 33.4073 17.8842C33.485 17.8541 33.5579 17.6655 33.5579 17.6655C33.6245 17.5275 33.7212 17.5878 33.7212 17.5878C33.94 17.6734 34.1857 17.5339 34.1857 17.5339C34.4267 17.407 34.5964 17.5466 34.5964 17.5466C34.8247 17.6607 35.0307 17.6068 35.0307 17.6068C35.1338 17.5529 35.4176 17.5894 35.4176 17.5894C35.6237 17.5894 35.7743 17.4435 35.7743 17.4435C35.9011 17.3341 35.974 17.4435 35.974 17.4435L36.1373 17.6068C36.1326 17.6845 36.2103 17.7812 36.2103 17.7812C36.2768 18.3028 36.1342 18.8149 36.1342 18.8149ZM36.6716 18.9052L36.4528 19.2191C36.4481 18.6214 36.8872 17.545 36.8872 17.545C36.949 18.1696 36.6716 18.9052 36.6716 18.9052Z" fill="#006636"/>
<path d="M63.3557 43.6094C58.8944 55.1952 47.6589 63.4122 34.5052 63.4122C21.3514 63.4122 10.1159 55.1968 5.65625 43.6094H14.65C18.5374 50.5549 25.9711 55.2507 34.5067 55.2507C43.0424 55.2507 50.4761 50.5549 54.3635 43.6094H63.3557Z" fill="#006536"/>
<path d="M64.5529 43.6102C60.0314 55.8207 48.2632 64.5482 34.5007 64.5482C20.7381 64.5482 8.96996 55.8207 4.45008 43.6102H3.96179C8.49435 56.0855 20.4543 65 34.5039 65C48.5502 65 60.5134 56.0855 65.0459 43.6102H64.5529ZM34.4991 0C20.4528 0 8.49118 8.91451 3.95703 21.3898H4.44532C8.96837 9.17927 20.7365 0.451829 34.4975 0.451829C48.2585 0.451829 60.0298 9.17927 64.5497 21.3898H65.038C60.5086 8.91451 48.5486 0 34.4991 0Z" fill="#006536"/>
<path d="M63.351 21.3872H54.3572C50.4699 14.4417 43.0361 9.74582 34.5005 9.74582C25.9649 9.74582 18.5311 14.4417 14.6438 21.3872H5.64844C10.1097 9.8013 21.3467 1.58594 34.4989 1.58594C47.6511 1.58594 58.8898 9.8013 63.351 21.3872Z" fill="#006536"/>
<path d="M67.0032 32.5005C67.0032 36.1516 66.3976 39.6632 65.2862 42.9386H3.71695C2.60402 39.6632 2 36.1516 2 32.5005C2 28.8495 2.60561 25.3379 3.71695 22.0625H65.2862C66.3976 25.3379 67.0032 28.8495 67.0032 32.5005Z" fill="#006536"/>
<path d="M30.7076 12.9922C30.622 13.276 30.5078 13.1856 30.5078 13.1856C30.5205 13.0968 30.7076 12.9922 30.7076 12.9922Z" fill="white"/>
<path d="M22.6429 33.6607C22.6429 35.4601 23.8066 35.977 23.8066 35.977H21.4904C20.8436 35.977 20.3267 35.4522 20.3267 34.8133V32.4971C20.3267 31.92 19.9383 31.3334 19.1631 31.3334H17.9994V35.9738H8.70758C6.43417 35.9738 5.27209 34.3028 5.2277 32.589C5.1849 30.815 6.34697 29.0156 8.70758 29.0156H13.3575L12.1938 31.3318H8.706C7.94026 31.3318 7.55185 31.9184 7.55185 32.4955C7.55185 33.0821 7.94026 33.6592 8.706 33.6592H15.6737V29.0188H19.1615C21.4777 29.0188 22.6414 30.7579 22.6414 32.4987V33.6607H22.6429ZM13.359 36.8981L14.7542 38.2932L13.359 39.6883L12.197 38.5262L11.0333 39.6899L9.63819 38.2948L11.0333 36.8996L12.197 38.0633L13.359 36.8981Z" fill="#FCB813"/>
<path d="M28.4368 29.0176V35.9774H23.7965C23.1496 35.9774 22.6328 35.4605 22.6328 34.8137V33.6596H26.1127V30.1797C26.1127 29.5424 26.6374 29.016 27.2763 29.016H28.4384V29.0176H28.4368ZM25.5515 28.087L24.1643 26.6998L25.5515 25.3047L26.7151 26.4683L27.8788 25.3047L29.2739 26.6998L27.8788 28.087L26.7151 26.9233L25.5515 28.087Z" fill="#FCB813"/>
<path d="M41.4908 33.6592L40.3366 35.9754H29.5894C28.9426 35.9754 28.4258 35.4586 28.4258 34.8117V33.6576H41.4908V33.6592ZM43.8149 33.6592C43.8149 35.4585 44.9786 35.9833 44.9786 35.9833H42.6544C42.0171 35.9833 41.5003 35.4665 41.5003 34.8196V32.5034C41.5003 31.9168 41.1119 31.3398 40.3366 31.3398H30.742C30.742 31.3398 31.9057 30.1761 31.9057 29.0156H40.3366C42.6529 29.0156 43.8165 30.7548 43.8165 32.5034L43.8149 33.6592Z" fill="#FCB813"/>
<path d="M48.7611 29.0172V35.977H44.1207C43.4739 35.977 42.957 35.4601 42.957 34.8133V33.6592H46.4369V30.1793C46.4369 29.542 46.9617 29.0156 47.6006 29.0156H48.7626V29.0172H48.7611ZM45.6094 36.8711L46.773 38.0348L47.9367 36.8711L49.3318 38.2583L47.9367 39.6534L46.773 38.4898L45.6094 39.6534L44.2222 38.2583L45.6094 36.8711Z" fill="#FCB813"/>
<path d="M49.9255 35.977C49.2882 35.969 48.7539 35.4522 48.7539 34.8133V33.6592H51.0876V30.1793C51.0876 29.542 51.6044 29.0156 52.2417 29.0156H53.4054V35.9754H49.9255V35.977ZM53.6368 38.3122L52.2417 39.7073L50.8545 38.3122L52.2417 36.9171L53.6368 38.3122Z" fill="#FCB813"/>
<path d="M62.6115 33.6478C62.6115 35.4472 63.7751 35.972 63.7751 35.972H60.2873V34.8083C60.2873 35.4552 59.7705 35.972 59.1237 35.972H55.6438V33.6558H60.2842V32.4921C60.2842 31.9055 59.8973 31.3285 59.1205 31.3285H55.6406C55.6406 31.3285 56.8043 30.1648 56.8043 29.0043H59.1205C61.4447 29.0043 62.6083 30.7435 62.6083 32.4921V33.6463H62.6115V33.6478ZM57.9679 28.0753L56.5728 26.6881L57.9679 25.293L59.3551 26.6881L57.9679 28.0753Z" fill="#FCB813"/>
<path d="M13.6013 15.6939C12.8657 14.9853 12.8546 13.9009 13.5822 13.1478C14.3036 12.3996 15.3832 12.3694 16.1204 13.0813C16.8592 13.7915 16.8671 14.8743 16.1458 15.621C15.4181 16.3772 14.3353 16.4026 13.6013 15.6939ZM15.7812 13.4316C15.2263 12.8958 14.4257 12.91 13.8993 13.4538C13.3666 14.0055 13.3825 14.8061 13.939 15.342C14.4938 15.8778 15.2944 15.8636 15.8271 15.3119C16.3519 14.7697 16.336 13.9675 15.7812 13.4316Z" fill="#FCB813"/>
<path d="M18.3576 11.4804L19.3564 12.7218L19.0092 13.0008L18.7904 12.7281C18.8174 13.0119 18.6811 13.302 18.3656 13.5557C17.909 13.9235 17.4207 13.9076 17.1321 13.5509C16.8674 13.2211 16.8579 12.7804 17.4603 12.2985L18.039 11.834L17.9803 11.761C17.7267 11.4471 17.4032 11.4091 17.0402 11.6992C16.8008 11.891 16.6264 12.1732 16.5789 12.4348L16.2031 12.2763C16.2761 11.9386 16.5012 11.6041 16.823 11.3441C17.3763 10.897 17.9058 10.9176 18.3576 11.4804ZM18.4861 12.3872L18.2562 12.0987L17.6934 12.5521C17.3335 12.8438 17.3446 13.069 17.4857 13.2433C17.6506 13.4494 17.9201 13.4431 18.1975 13.2196C18.4718 12.9992 18.5859 12.6964 18.4861 12.3872Z" fill="#FCB813"/>
<path d="M19.4981 12.2691L19.4537 11.8458C19.7248 11.8585 20.0816 11.7634 20.3622 11.5763C20.7252 11.3385 20.8029 11.1276 20.6792 10.9406C20.3558 10.4444 19.2698 11.7697 18.6928 10.8914C18.4328 10.4967 18.6056 10.002 19.1605 9.6374C19.4411 9.4535 19.8089 9.31874 20.08 9.32033L20.1196 9.74679C19.839 9.74679 19.5933 9.84191 19.3808 9.98142C19.0368 10.2065 18.9559 10.4444 19.0701 10.6187C19.4109 11.1387 20.5033 9.81655 21.0661 10.6726C21.3277 11.0722 21.1358 11.562 20.5603 11.9378C20.202 12.1772 19.7724 12.2976 19.4981 12.2691Z" fill="#FCB813"/>
<path d="M20.0959 8.13597C20.0103 7.98378 20.0611 7.79671 20.2196 7.70793C20.3781 7.61915 20.5604 7.66988 20.6445 7.81732C20.7333 7.97268 20.6857 8.15817 20.5256 8.25012C20.367 8.3389 20.1815 8.28817 20.0959 8.13597ZM20.57 8.80658L20.979 8.57829L22.2726 10.8771L21.8636 11.1054L20.57 8.80658Z" fill="#FCB813"/>
<path d="M22.5048 10.4088L22.5191 9.98395C22.7854 10.0347 23.1516 9.98553 23.4576 9.84127C23.8492 9.65578 23.9554 9.45602 23.8603 9.25309C23.6051 8.71883 22.351 9.88248 21.8992 8.93444C21.6963 8.50797 21.9341 8.04187 22.5333 7.75651C22.8362 7.61224 23.2198 7.5298 23.4861 7.56785L23.4671 7.9959C23.1897 7.95785 22.9329 8.01809 22.703 8.12748C22.332 8.30187 22.2179 8.52858 22.3082 8.71724C22.5746 9.27846 23.8381 8.11797 24.2772 9.04383C24.4818 9.47505 24.2249 9.93322 23.6035 10.2281C23.2151 10.4136 22.7743 10.4738 22.5048 10.4088Z" fill="#FCB813"/>
<path d="M25.1172 5.80052L25.5833 5.65625L26.479 8.57174L28.2467 8.02796L28.3735 8.44174L26.1382 9.12979L25.1172 5.80052Z" fill="#FCB813"/>
<path d="M27.8712 5.05069C27.8332 4.88106 27.9346 4.7146 28.1122 4.67655C28.2898 4.63691 28.4515 4.73838 28.4879 4.90325C28.5276 5.07764 28.4293 5.24252 28.2486 5.28216C28.0726 5.32179 27.9093 5.22033 27.8712 5.05069ZM28.1312 5.82911L28.5894 5.72606L29.1665 8.30069L28.7083 8.40374L28.1312 5.82911Z" fill="#FCB813"/>
<path d="M31.7649 5.19922L31.0277 7.97361L30.5537 8.04336L29.0508 5.59873L29.5343 5.52739L30.7202 7.49007L31.3115 5.2658L31.7649 5.19922Z" fill="#FCB813"/>
<path d="M34.6083 6.54744L32.5124 6.6378C32.5901 7.09756 32.9706 7.39085 33.4811 7.36707C33.7823 7.3528 34.0328 7.23866 34.2119 7.01671L34.4846 7.31317C34.2626 7.60329 33.9139 7.765 33.4842 7.78402C32.6503 7.82049 32.0701 7.28305 32.0368 6.49512C32.0019 5.71512 32.5298 5.12854 33.275 5.09524C34.0201 5.06195 34.575 5.58829 34.6114 6.39683C34.6146 6.44439 34.6098 6.50305 34.6083 6.54744ZM32.4965 6.29695L34.1533 6.22402C34.0851 5.78329 33.7442 5.48366 33.2924 5.50427C32.8437 5.52329 32.5251 5.84829 32.4965 6.29695Z" fill="#FCB813"/>
<path d="M34.8242 7.43668L35.0414 7.06888C35.2507 7.2401 35.5963 7.37327 35.9324 7.39229C36.3652 7.41607 36.5523 7.29241 36.5665 7.06888C36.5998 6.47754 34.9384 6.89924 34.9954 5.84973C35.0208 5.37888 35.4536 5.08241 36.1147 5.12046C36.4508 5.13949 36.825 5.24888 37.0421 5.41217L36.8218 5.77998C36.5967 5.61351 36.3414 5.54376 36.0878 5.53107C35.6787 5.50888 35.471 5.64998 35.4584 5.86083C35.4235 6.48071 37.0897 6.06534 37.0326 7.08949C37.0073 7.56668 36.5618 7.84571 35.8721 7.80924C35.4457 7.78071 35.0287 7.62376 34.8242 7.43668Z" fill="#FCB813"/>
<path d="M38.8712 7.94253C38.7127 8.04717 38.4939 8.0757 38.2846 8.04875C37.7678 7.97741 37.5125 7.64607 37.5839 7.11973L37.782 5.68497L37.3477 5.62631L37.4016 5.23632L37.8359 5.29497L37.9136 4.72266L38.3781 4.78607L38.3005 5.35839L39.0361 5.45827L38.9822 5.84827L38.2466 5.74839L38.0531 7.16253C38.0151 7.44314 38.1388 7.62229 38.394 7.65717C38.5288 7.67619 38.6667 7.64924 38.7729 7.58424L38.8712 7.94253Z" fill="#FCB813"/>
<path d="M39.219 6.80304C39.3965 6.03731 40.0782 5.62195 40.8329 5.79792C41.5891 5.97231 42.0155 6.64451 41.8364 7.41024C41.6588 8.17597 40.9819 8.59609 40.2257 8.4217C39.4726 8.24731 39.043 7.57036 39.219 6.80304ZM41.3782 7.30402C41.505 6.75548 41.226 6.31951 40.7409 6.20695C40.2558 6.09438 39.8087 6.36548 39.6819 6.91243C39.555 7.45938 39.8372 7.90487 40.324 8.01743C40.8075 8.12999 41.2514 7.85255 41.3782 7.30402Z" fill="#FCB813"/>
<path d="M42.1865 7.51838C42.4465 6.77643 43.1695 6.43875 43.9209 6.70192C44.3585 6.85411 44.6581 7.16484 44.731 7.58021L44.3173 7.68484C44.2459 7.38521 44.0462 7.18862 43.7798 7.09509C43.301 6.92704 42.8207 7.14582 42.6352 7.67533C42.4465 8.21594 42.6875 8.67887 43.1663 8.84692C43.4326 8.94045 43.7117 8.91033 43.9558 8.72167L44.2158 9.0546C43.9003 9.33521 43.4707 9.39387 43.0331 9.24167C42.2785 8.98009 41.9265 8.26033 42.1865 7.51838Z" fill="#FCB813"/>
<path d="M45.8254 9.04147L45.1231 9.26976L44.8139 9.92135L44.3906 9.72001L45.9696 6.38281L46.3929 6.58415L45.3783 8.72598L47.2142 8.14415L47.7262 8.38672L46.2772 8.90513L46.6957 10.8155L46.1757 10.5698L45.8254 9.04147Z" fill="#FCB813"/>
<path d="M49.9438 8.71875L50.348 8.99302L48.6359 11.5169L50.1673 12.5553L49.9247 12.9136L47.9922 11.6009L49.9438 8.71875Z" fill="#FCB813"/>
<path d="M52.459 10.5L52.8316 10.8155L50.8625 13.1476L52.2751 14.3398L51.9961 14.6711L50.2109 13.1634L52.459 10.5Z" fill="#FCB813"/>
<path d="M53.2911 13.4877C54.0394 12.7807 55.1142 12.825 55.8292 13.5797C56.1923 13.9633 56.3714 14.4215 56.3255 14.8955L55.88 14.8797C55.9053 14.4929 55.7801 14.171 55.5217 13.8968C54.9922 13.3371 54.1884 13.3102 53.6272 13.8413C53.0659 14.3724 53.0453 15.1761 53.5748 15.7358C53.8333 16.01 54.1519 16.1496 54.5388 16.148L54.5277 16.5935C54.052 16.6125 53.6002 16.4096 53.2356 16.0227C52.5238 15.2713 52.5412 14.1948 53.2911 13.4877Z" fill="#FCB813"/>
<path d="M23.2259 55.4235C23.1783 55.3553 23.1292 55.2919 23.0737 55.2301C23.0182 55.1683 22.9611 55.108 22.9009 55.0494C22.8406 54.9923 22.7836 54.9431 22.7296 54.9051C22.5917 54.8084 22.4586 54.7672 22.3349 54.7783C22.2096 54.7909 22.1114 54.8448 22.0416 54.9384C22.0289 54.9542 22.0194 54.9733 22.0083 54.9939C21.9972 55.0161 21.9893 55.0383 21.9845 55.0636C21.7293 55.8769 21.6136 56.2891 21.4059 57.1246C21.1982 56.9819 21.0951 56.909 20.8906 56.76C21.1046 55.9847 21.2204 55.6011 21.4725 54.8464C21.5042 54.7608 21.547 54.6815 21.604 54.607C21.6801 54.5087 21.7721 54.4295 21.8783 54.374C21.9845 54.3169 22.0987 54.2852 22.2176 54.2757C22.3396 54.2678 22.4633 54.2805 22.5965 54.3185C22.7281 54.3565 22.8612 54.4231 22.9976 54.5183C23.126 54.6086 23.2449 54.7101 23.3559 54.8258C23.4668 54.9415 23.5604 55.0684 23.6365 55.2111C23.5176 55.3712 23.4557 55.4504 23.3368 55.6122C23.3099 55.5535 23.2734 55.4917 23.2259 55.4235Z" fill="#FCB813"/>
<path d="M24.1421 56.7734C24.2499 57.062 24.3054 57.2031 24.4243 57.49C24.1231 57.5566 23.9725 57.5851 23.6633 57.6406C23.5492 57.3505 23.4937 57.2078 23.3906 56.9177C23.695 56.8654 23.8456 56.8353 24.1421 56.7734Z" fill="#FCB813"/>
<path d="M26.1519 57.75C26.285 58.0243 26.3548 58.159 26.5007 58.4317C26.2105 58.5284 26.0631 58.576 25.765 58.6616C25.6224 58.3873 25.5558 58.251 25.4258 57.9735C25.7191 57.8895 25.8649 57.8451 26.1519 57.75Z" fill="#FCB813"/>
<path d="M28.0181 57.5937C28.0926 57.5144 28.1798 57.451 28.2797 57.4051C28.3795 57.3607 28.4858 57.3321 28.5999 57.3258C28.7141 57.3194 28.833 57.3321 28.9519 57.367C29.4592 57.5144 29.7144 57.5779 30.2297 57.6904C29.9681 58.881 29.8365 59.4755 29.5749 60.6677C29.3498 60.617 29.2372 60.5916 29.0137 60.5362C29.1136 60.1271 29.1643 59.921 29.2673 59.512C28.9186 59.4264 28.7458 59.3804 28.4002 59.279C28.267 59.2409 28.1513 59.1838 28.0498 59.1109C27.9499 59.0364 27.8691 58.9508 27.8104 58.8541C27.7517 58.7574 27.7153 58.6527 27.701 58.5433C27.6867 58.434 27.6994 58.323 27.7375 58.212C27.7819 58.0788 27.8056 58.0123 27.85 57.8791C27.8881 57.7697 27.9436 57.6746 28.0181 57.5937ZM28.2797 58.6543C28.3336 58.7399 28.416 58.8002 28.5286 58.8335C28.8663 58.9302 29.0359 58.9777 29.3767 59.0602C29.4766 58.6512 29.5273 58.4451 29.6304 58.036C29.307 57.9568 29.1453 57.9124 28.8234 57.8188C28.7156 57.7871 28.6189 57.7935 28.5286 57.8363C28.4382 57.8775 28.3795 57.9473 28.3478 58.044C28.3066 58.1787 28.286 58.2453 28.2432 58.3801C28.2147 58.4752 28.2258 58.5671 28.2797 58.6543Z" fill="#FCB813"/>
<path d="M32.3173 60.6301C33.6332 60.7617 34.2974 60.7792 35.6165 60.7221C35.5927 60.1609 35.5784 59.8803 35.5546 59.3159C35.7655 59.3079 35.8701 59.3 36.081 59.2858C36.119 59.847 36.1396 60.1276 36.1777 60.6904C36.3743 60.6761 36.4726 60.6698 36.6676 60.6508C36.685 60.8378 36.6929 60.9314 36.7088 61.1169C34.9347 61.277 34.039 61.2722 32.2666 61.0962C32.089 61.0788 31.9447 61.009 31.8322 60.8917C31.7196 60.7744 31.6736 60.6428 31.6911 60.5001C31.7608 59.9643 31.7941 59.6979 31.8623 59.1637C32.0716 59.189 32.1778 59.2017 32.3871 59.2239C32.3316 59.7598 32.3046 60.0277 32.2491 60.5651C32.2491 60.6048 32.2697 60.6254 32.3173 60.6301ZM33.9867 58.5723C33.8408 58.6992 33.7663 58.7626 33.6157 58.8862C33.4921 58.7642 33.4302 58.7039 33.3113 58.5834C33.4651 58.4582 33.5396 58.3964 33.6887 58.2695C33.806 58.39 33.8646 58.4518 33.9867 58.5723ZM34.7508 58.5818C34.6082 58.7134 34.5368 58.78 34.3926 58.91C34.2641 58.7943 34.2023 58.7356 34.0771 58.6167C34.2261 58.4867 34.299 58.4201 34.4433 58.2886C34.5638 58.4059 34.624 58.4645 34.7508 58.5818Z" fill="#FCB813"/>
<path d="M36.5235 60.7159C36.56 60.6794 36.6091 60.6588 36.6694 60.6541C36.95 60.6287 37.0895 60.6144 37.3701 60.5795C37.3019 60.0215 37.2671 59.7425 37.2005 59.1828C37.4097 59.1575 37.5144 59.1432 37.7236 59.1131C37.8045 59.6695 37.8473 59.9486 37.9282 60.505C38.2912 60.4511 38.4703 60.4226 38.8318 60.3544C38.7272 59.8011 38.6764 59.5237 38.5718 58.9704C38.7795 58.9308 38.8841 58.9102 39.0918 58.8658C39.2091 59.4159 39.2694 59.6917 39.3867 60.2419C39.745 60.1658 39.9241 60.1245 40.2808 60.0326C40.1397 59.4888 40.0716 59.2145 39.9321 58.6692C40.1381 58.6169 40.2412 58.5899 40.4457 58.5312C40.5979 59.0719 40.674 59.3445 40.8294 59.8852C41.1021 59.8091 41.2384 59.7678 41.5095 59.6822C41.5666 59.8614 41.5951 59.9517 41.6522 60.1293C40.0938 60.6414 38.353 60.9902 36.7169 61.1186C36.6551 61.1233 36.6028 61.1122 36.5584 61.0821C36.5156 61.052 36.4902 61.0123 36.4871 60.96C36.4839 60.9125 36.4823 60.8903 36.4791 60.8443C36.4696 60.7952 36.4871 60.7523 36.5235 60.7159Z" fill="#FCB813"/>
<path d="M41.3763 59.7747C41.4064 59.7318 41.4492 59.7001 41.5079 59.6811C41.779 59.5955 41.9137 59.5511 42.1816 59.456C41.9961 58.9249 41.9026 58.6601 41.7155 58.1275C41.9169 58.0561 42.0168 58.0196 42.2181 57.9436C42.4179 58.4699 42.5177 58.7331 42.7175 59.2594C43.0647 59.1278 43.2359 59.0581 43.5783 58.9122C43.358 58.3938 43.247 58.1354 43.0266 57.617C43.2248 57.5314 43.3231 57.4886 43.5197 57.3998C43.7543 57.9118 43.8701 58.1671 44.1047 58.6792C44.4186 58.5365 44.574 58.462 44.8831 58.3066C44.9259 58.286 44.9386 58.2559 44.9211 58.221C44.677 57.739 44.5549 57.4996 44.3124 57.0177C44.5042 56.921 44.6025 56.8703 44.7927 56.7656C45.048 57.2412 45.1764 57.4775 45.4332 57.9531C45.503 58.0799 45.5061 58.2194 45.4411 58.3716C45.3777 58.5222 45.2604 58.6427 45.094 58.7251C43.7543 59.3989 43.0599 59.6779 41.6505 60.125C41.5903 60.144 41.5364 60.144 41.4872 60.1234C41.4381 60.1044 41.4064 60.0695 41.3921 60.0204C41.3779 59.976 41.3715 59.9522 41.3572 59.9078C41.3398 59.865 41.3461 59.8175 41.3763 59.7747Z" fill="#FCB813"/>
<path d="M45.3482 54.6766C45.0692 54.8557 44.9281 54.9413 44.6443 55.1062C44.5904 55.0127 44.5634 54.9651 44.5095 54.8732C44.5714 54.8367 44.6031 54.8177 44.6649 54.7812C44.527 54.7495 44.4287 54.6861 44.3732 54.5926C44.3431 54.5418 44.3399 54.4832 44.3621 54.4182C44.3843 54.3532 44.4318 54.2993 44.5 54.2565C44.6284 54.1788 44.7822 54.1392 44.9645 54.1328C44.9645 54.1709 44.9614 54.2073 44.9582 54.2422C44.9534 54.2771 44.9518 54.3135 44.9503 54.3516C44.9186 54.3484 44.8789 54.35 44.8314 54.3563C44.7822 54.3627 44.7378 54.3801 44.695 54.4071C44.6364 54.4435 44.6173 54.48 44.6395 54.5165C44.6601 54.5498 44.7029 54.5751 44.7711 54.591C44.8393 54.6068 44.9154 54.6037 44.9978 54.5783C45.0803 54.526 45.1231 54.5006 45.2039 54.4483C45.261 54.5402 45.2911 54.5862 45.3482 54.6766ZM46.7116 57.2829C46.9098 57.1593 47.0081 57.0959 47.2047 56.9674C47.3093 57.1228 47.3584 57.2037 47.4631 57.359C47.0636 57.6222 46.8622 57.749 46.4516 57.99C45.8095 56.8993 45.4877 56.3539 44.8456 55.2616C45.0232 55.157 45.1104 55.1031 45.2848 54.9953C45.8539 55.9084 46.1409 56.3666 46.7116 57.2829Z" fill="#FCB813"/>
<path d="M47.0979 57.0934C47.1153 57.0426 47.1502 56.9998 47.2025 56.9649C47.4958 56.7715 47.6417 56.6717 47.9286 56.4656C47.6005 56.0074 47.4388 55.7791 47.1106 55.3209C47.2913 55.1925 47.3801 55.1275 47.5577 54.9912C48.0095 55.5888 48.2362 55.8885 48.688 56.4878C48.2061 56.8524 47.9603 57.0252 47.4625 57.3549C47.4086 57.3914 47.3547 57.4057 47.3008 57.4025C47.2469 57.3977 47.2073 57.3724 47.1788 57.3312C47.1534 57.2915 47.1407 57.2725 47.1153 57.2329C47.0868 57.1917 47.0821 57.1441 47.0979 57.0934ZM46.6635 54.7121C46.6191 54.9056 46.5938 55.0039 46.5446 55.1973C46.3671 55.1798 46.2814 55.1703 46.1055 55.1465C46.1578 54.9499 46.1816 54.8532 46.2291 54.6598C46.4019 54.682 46.4891 54.6931 46.6635 54.7121ZM47.3072 54.2318C47.2691 54.4284 47.2485 54.5267 47.2041 54.7217C47.0266 54.7106 46.9394 54.7042 46.7618 54.6899C46.8062 54.4918 46.8284 54.3935 46.8696 54.1953C47.044 54.2128 47.1312 54.2191 47.3072 54.2318Z" fill="#FCB813"/>
</g>
</g>
<defs>
<filter id="filter0_d_461_47420" x="0.129496" y="0" width="68.741" height="68.741" filterUnits="userSpaceOnUse" color-interpolation-filters="sRGB">
<feFlood flood-opacity="0" result="BackgroundImageFix"/>
<feColorMatrix in="SourceAlpha" type="matrix" values="0 0 0 0 0 0 0 0 0 0 0 0 0 0 0 0 0 0 127 0" result="hardAlpha"/>
<feOffset dy="1.8705"/>
<feGaussianBlur stdDeviation="0.935252"/>
<feComposite in2="hardAlpha" operator="out"/>
<feColorMatrix type="matrix" values="0 0 0 0 0 0 0 0 0 0 0 0 0 0 0 0 0 0 0.12 0"/>
<feBlend mode="normal" in2="BackgroundImageFix" result="effect1_dropShadow_461_47420"/>
<feBlend mode="normal" in="SourceGraphic" in2="effect1_dropShadow_461_47420" result="shape"/>
</filter>
<clipPath id="clip0_461_47420">
<rect x="2" width="65" height="65" rx="32.5" fill="white"/>
</clipPath>
</defs>
</svg>
