<svg width="24" height="25" viewBox="0 0 24 25" fill="none" xmlns="http://www.w3.org/2000/svg">
<path fill-rule="evenodd" clip-rule="evenodd" d="M6.80524 16.2137C5.9404 15.3306 5.35381 14.2131 5.11824 12.9997C4.88072 11.7829 5.00269 10.5233 5.46924 9.37469C5.93181 8.23253 6.72153 7.25251 7.73924 6.55769C9.80409 5.14744 12.5224 5.14744 14.5872 6.55769C15.605 7.25251 16.3947 8.23253 16.8572 9.37469C17.3238 10.5233 17.4458 11.7829 17.2082 12.9997C16.9727 14.2131 16.3861 15.3306 15.5212 16.2137C14.3759 17.389 12.8044 18.0519 11.1632 18.0519C9.52213 18.0519 7.95059 17.389 6.80524 16.2137V16.2137Z" stroke="#525252" stroke-linecap="round" stroke-linejoin="round"/>
<path d="M11.1963 7.94982C10.9217 7.97891 10.7227 8.22511 10.7518 8.49972C10.7809 8.77432 11.0271 8.97335 11.3017 8.94425L11.1963 7.94982ZM13.2516 10.093C13.3592 10.3473 13.6527 10.4661 13.9069 10.3585C14.1612 10.2508 14.2801 9.9574 14.1725 9.70311L13.2516 10.093ZM15.9653 15.7622C15.7698 15.5671 15.4532 15.5674 15.2582 15.7628C15.0631 15.9582 15.0633 16.2748 15.2588 16.4699L15.9653 15.7622ZM18.6468 19.8519C18.8422 20.047 19.1588 20.0467 19.3539 19.8513C19.549 19.6558 19.5487 19.3393 19.3533 19.1442L18.6468 19.8519ZM11.3017 8.94425C12.1337 8.85609 12.9254 9.32252 13.2516 10.093L14.1725 9.70311C13.6746 8.52717 12.4662 7.81526 11.1963 7.94982L11.3017 8.94425ZM15.2588 16.4699L18.6468 19.8519L19.3533 19.1442L15.9653 15.7622L15.2588 16.4699Z" fill="#525252"/>
</svg>
