<svg width="26" height="24" viewBox="0 0 26 24" fill="none" xmlns="http://www.w3.org/2000/svg">
<path d="M13.1844 0.726562C14.1772 0.726562 17.551 1.00527 19.1396 4.56362C19.6692 5.76431 19.5434 7.79658 19.4379 9.43264V9.49139C19.4259 9.67217 19.4146 9.8409 19.4063 10.0051C19.4809 10.048 19.6104 10.0955 19.81 10.0955C20.1083 10.0797 20.4691 9.97423 20.8457 9.79345C21.0107 9.70306 21.1907 9.68724 21.3128 9.68724C21.4935 9.68724 21.6736 9.71887 21.8227 9.77763C22.2739 9.92677 22.5601 10.2605 22.5601 10.6213C22.576 11.0725 22.1677 11.4649 21.3399 11.7941C21.2533 11.8212 21.132 11.8687 20.9949 11.9116C20.5437 12.0487 19.853 12.2724 19.6571 12.7274C19.5667 12.9511 19.5984 13.2531 19.7784 13.5981L19.7942 13.6139C19.853 13.751 21.3241 17.1015 24.6037 17.6431C24.8628 17.6905 25.0429 17.9135 25.0278 18.1568C25.0273 18.2338 25.0111 18.3099 24.9803 18.3805C24.7408 18.953 23.7013 19.3733 21.822 19.6595C21.7632 19.7499 21.7007 20.0362 21.657 20.232C21.6236 20.4188 21.5791 20.6034 21.5237 20.7849C21.4453 21.0553 21.2487 21.1931 20.9625 21.1931H20.9354C20.7983 21.1931 20.6213 21.1615 20.3938 21.1186C19.9735 21.0279 19.5448 20.982 19.1148 20.9815C18.8127 20.9815 18.5144 20.9973 18.1966 21.0561C17.5962 21.1623 17.0705 21.5231 16.4663 21.9464C15.6114 22.5467 14.6344 23.2375 13.1588 23.2375C13.1001 23.2375 13.0413 23.2217 12.978 23.2217H12.8289C11.354 23.2217 10.3929 22.5467 9.53342 21.9306C8.93308 21.5065 8.42313 21.1457 7.81902 21.0402C7.51119 20.9947 7.20066 20.9698 6.88951 20.9657C6.34792 20.9657 5.92836 21.0561 5.61049 21.1186C5.4327 21.1604 5.25137 21.1853 5.0689 21.1931C4.69228 21.1931 4.54313 20.9657 4.48438 20.7691C4.42186 20.577 4.39399 20.3766 4.34729 20.2004C4.29983 20.0196 4.24108 19.7025 4.18233 19.6279C2.25626 19.4042 1.22054 18.9846 0.977244 18.3963C0.944113 18.3249 0.925427 18.2476 0.922257 18.1688C0.917451 18.0465 0.958123 17.9266 1.03643 17.8325C1.11474 17.7383 1.22514 17.6765 1.34634 17.6589C4.62223 17.1173 6.09709 13.7631 6.15585 13.6222L6.17166 13.5951C6.35244 13.2456 6.39915 12.9481 6.29294 12.7206C6.09709 12.2852 5.40636 12.0615 4.95516 11.9086C4.83569 11.8789 4.71881 11.8396 4.60565 11.7911C3.49536 11.3519 3.34245 10.857 3.40497 10.512C3.49536 10.0292 4.07989 9.71586 4.57778 9.71586C4.72316 9.71586 4.8482 9.74298 4.96194 9.79043C5.3815 9.98251 5.75436 10.0887 6.07223 10.0887C6.30348 10.0887 6.45639 10.03 6.53925 9.98703L6.4918 9.41456C6.39387 7.78227 6.26431 5.74623 6.79762 4.5576C8.34329 1.01506 11.7058 0.743887 12.6978 0.743887L13.1174 0.728069L13.1844 0.726562Z" fill="#0A4C26"/>
</svg>
