<svg width="24" height="19" viewBox="0 0 24 19" fill="none" xmlns="http://www.w3.org/2000/svg">
<path d="M23.3352 2.4987C22.501 2.87786 21.6019 3.12703 20.6702 3.2462C21.6235 2.67203 22.3602 1.76203 22.7069 0.667865C21.8077 1.20953 20.811 1.5887 19.7602 1.80536C18.9044 0.873698 17.7019 0.332031 16.3369 0.332031C13.791 0.332031 11.711 2.41203 11.711 4.97953C11.711 5.34786 11.7544 5.70536 11.8302 6.0412C7.97354 5.8462 4.53938 3.9937 2.25354 1.18786C1.85271 1.87036 1.62521 2.67203 1.62521 3.51703C1.62521 5.1312 2.43771 6.5612 3.69438 7.3737C2.92521 7.3737 2.21021 7.15703 1.58188 6.83203V6.86453C1.58188 9.11786 3.18521 11.0029 5.30854 11.4254C4.62683 11.6119 3.91114 11.6379 3.21771 11.5012C3.51195 12.4247 4.08821 13.2328 4.86548 13.8119C5.64275 14.3909 6.58194 14.7119 7.55104 14.7295C5.90831 16.03 3.87204 16.733 1.77688 16.7229C1.40854 16.7229 1.04021 16.7012 0.671875 16.6579C2.73021 17.9795 5.17854 18.7487 7.80021 18.7487C16.3369 18.7487 21.0277 11.6637 21.0277 5.5212C21.0277 5.31536 21.0277 5.12036 21.0169 4.91453C21.9269 4.26453 22.7069 3.4412 23.3352 2.4987Z" fill="#0A4C26"/>
</svg>
