<svg width="24" height="24" viewBox="0 0 24 24" fill="none" xmlns="http://www.w3.org/2000/svg">
<path d="M12.0829 0.25C5.54818 0.25 0.25 5.54818 0.25 12.0829C0.25 14.3027 0.873536 16.3724 1.93711 18.1476L0.355926 23.9158L6.24733 22.3693C7.97032 23.3488 9.95937 23.9158 12.0829 23.9158C18.6176 23.9158 23.9158 18.6176 23.9158 12.0829C23.9158 5.54818 18.6176 0.25 12.0829 0.25ZM8.03267 6.56319C8.22495 6.56319 8.42252 6.56201 8.59311 6.57089C8.80413 6.57582 9.03381 6.59127 9.2537 7.07741C9.51501 7.65525 10.084 9.10485 10.157 9.25178C10.2299 9.3987 10.2816 9.57179 10.1801 9.76408C10.0834 9.96129 10.0332 10.0807 9.89119 10.2552C9.74426 10.4248 9.58327 10.6354 9.45015 10.7636C9.30322 10.9106 9.15151 11.0717 9.32111 11.3645C9.49072 11.6574 10.0797 12.6175 10.9504 13.3925C12.0696 14.3924 13.0139 14.6997 13.3078 14.8466C13.6016 14.9935 13.7718 14.9706 13.9414 14.7734C14.1159 14.5811 14.6744 13.9213 14.8716 13.6275C15.0639 13.3336 15.2602 13.3845 15.5264 13.4811C15.7966 13.5777 17.2375 14.2875 17.5313 14.4344C17.8252 14.5814 18.0178 14.6541 18.0918 14.7734C18.1677 14.8967 18.1678 15.4834 17.9242 16.1678C17.6807 16.8511 16.4846 17.512 15.9482 17.5583C15.4069 17.6086 14.9016 17.8016 12.4296 16.8284C9.44767 15.654 7.56715 12.5998 7.42022 12.4026C7.2733 12.2103 6.22615 10.8147 6.22615 9.37504C6.22615 7.93044 6.98356 7.22296 7.24882 6.92911C7.519 6.63526 7.83545 6.56319 8.03267 6.56319Z" fill="#0A4C26"/>
</svg>
